<?xml version="1.0" standalone="no"?>
<!DOCTYPE svg PUBLIC "-//W3C//DTD SVG 20010904//EN"
 "http://www.w3.org/TR/2001/REC-SVG-20010904/DTD/svg10.dtd">
<svg version="1.0" xmlns="http://www.w3.org/2000/svg"
 width="1440.000000pt" height="1440.000000pt" viewBox="0 0 1440.000000 1440.000000"
 preserveAspectRatio="xMidYMid meet">
<metadata>
Created by potrace 1.16, written by Peter Selinger 2001-2019
</metadata>
<g transform="translate(0.000000,1440.000000) scale(0.100000,-0.100000)"
fill="#000000" stroke="none">
<path d="M0 7200 l0 -7200 7200 0 7200 0 0 7200 0 7200 -7200 0 -7200 0 0
-7200z m7955 4480 c-3 -5 -13 -10 -21 -10 -10 0 -13 -6 -9 -18 4 -15 -8 -28
-51 -57 -32 -20 -71 -39 -88 -42 -30 -4 -30 -4 -11 11 20 14 20 15 1 29 -16
12 -25 12 -60 0 -63 -22 -131 -67 -93 -62 34 4 55 -3 60 -20 5 -22 -12 -40
-56 -59 -42 -18 -23 -32 44 -32 44 0 59 -4 59 -14 0 -8 5 -16 11 -18 21 -7 -6
-42 -52 -67 -23 -13 -39 -19 -35 -12 4 6 1 14 -7 17 -9 3 -13 13 -10 25 5 18
-10 25 -40 20 -5 -1 -6 3 -2 9 4 6 -4 19 -16 29 -13 10 -28 33 -34 50 l-11 32
-59 -40 c-115 -76 -253 -252 -334 -425 -18 -38 -48 -125 -67 -194 -34 -126
-50 -156 -68 -125 -13 23 0 230 17 278 8 22 20 62 26 89 36 151 166 333 316
442 95 69 276 142 405 164 69 12 192 12 185 0z m-1569 -321 c27 -11 60 -28 71
-38 12 -11 23 -17 26 -14 3 3 11 2 17 -2 8 -5 8 -10 -1 -21 -8 -10 -7 -17 5
-29 9 -9 16 -21 16 -26 0 -14 30 -11 36 5 8 20 47 8 88 -26 27 -22 34 -33 27
-42 -10 -12 -9 -53 2 -93 22 -79 24 -80 -80 5 -139 112 -190 146 -258 171
-118 44 -155 63 -155 80 0 29 17 44 56 51 47 8 82 3 150 -21z m1759 -284 c129
-29 232 -75 338 -150 97 -70 165 -130 156 -139 -2 -2 -32 1 -66 8 -50 9 -61
14 -53 26 5 8 7 17 4 21 -15 26 -149 64 -194 57 -22 -4 -19 -6 18 -18 l44 -14
-44 -13 c-34 -10 -53 -11 -90 -1 -27 6 -48 16 -48 20 0 5 -6 6 -12 2 -7 -5 2
7 20 25 18 19 31 35 28 38 -2 2 -33 11 -67 19 -141 34 -438 -19 -611 -107 -22
-11 -42 -18 -45 -15 -3 3 -18 -3 -33 -14 -16 -11 -32 -20 -38 -20 -5 0 -15 -7
-22 -15 -13 -16 -58 -17 -52 -2 2 5 -4 14 -13 21 -15 11 -15 13 -1 25 8 7 19
10 24 7 6 -3 15 1 22 9 10 12 10 15 -1 15 -11 0 -11 2 1 10 23 15 30 12 30
-10 0 -25 8 -25 29 -1 9 10 25 20 36 22 13 3 21 14 23 33 3 20 0 26 -9 21 -7
-5 -10 -3 -7 6 12 38 252 131 380 149 73 9 168 4 253 -15z m-351 -576 c98 -24
177 -71 250 -150 95 -102 134 -207 121 -321 -8 -71 -88 -248 -111 -248 -17 0
-18 38 -3 77 27 69 1 317 -39 372 -10 14 -35 35 -56 49 l-39 24 5 -43 c3 -24
15 -66 28 -94 20 -43 22 -59 16 -127 -6 -78 -24 -146 -26 -103 -1 19 -1 19
-15 1 -8 -10 -27 -20 -44 -22 -26 -3 -30 0 -33 24 -2 15 3 37 10 50 16 24 12
26 -35 22 -40 -3 -43 8 -17 78 22 58 24 77 18 141 -7 85 -24 122 -76 170 -31
27 -20 34 45 27 45 -5 58 -4 47 4 -42 30 -94 50 -160 62 -41 8 -76 20 -78 27
-5 16 78 8 192 -20z m434 -124 c120 -104 222 -266 266 -419 28 -94 38 -264 22
-353 -7 -40 -26 -61 -26 -29 0 9 -7 12 -19 9 -10 -3 -30 2 -43 11 -14 9 -28
13 -31 9 -13 -12 -7 13 6 26 10 11 9 13 -6 8 -10 -4 -26 -1 -37 5 -10 7 -22
10 -25 6 -4 -3 -26 -50 -49 -104 -43 -100 -47 -141 -13 -138 16 2 17 -32 1
-57 -4 -8 -9 -20 -10 -26 -6 -37 -49 -52 -97 -34 -14 6 -29 6 -38 0 -8 -5 -10
-9 -5 -9 5 0 -12 -16 -38 -35 -25 -20 -46 -43 -46 -52 0 -9 -3 -14 -6 -10 -3
3 -34 -15 -68 -41 -34 -26 -131 -90 -215 -142 -85 -52 -183 -114 -219 -138
-112 -73 -134 -85 -158 -88 -51 -5 -19 48 58 97 29 18 55 36 58 39 5 6 82 56
190 124 51 32 59 41 46 48 -9 5 -21 6 -26 3 -6 -3 -10 1 -10 9 0 9 -7 16 -15
16 -8 0 -15 9 -15 20 0 13 19 30 61 55 33 19 64 35 69 35 4 0 26 15 48 33 22
17 67 52 100 76 106 75 234 228 301 356 59 114 82 351 47 470 -20 68 -74 179
-117 243 -38 56 -26 51 59 -23z m-640 -707 c19 -30 20 -37 7 -89 -13 -59 -27
-91 -38 -90 -29 4 -37 -6 -57 -70 -27 -84 -48 -113 -74 -103 -15 6 -17 14 -11
51 8 54 32 113 45 113 12 0 34 49 31 68 -2 10 69 152 76 152 1 0 10 -15 21
-32z m1147 -212 c24 -49 24 -50 4 -77 -10 -15 -19 -30 -19 -34 0 -8 -30 -39
-34 -34 -1 2 -17 39 -34 82 -29 74 -30 79 -14 97 10 10 29 18 45 17 24 -1 32
-10 52 -51z m-1711 -762 c-27 -31 -62 -72 -77 -93 -56 -72 -168 -281 -208
-386 -22 -60 -46 -116 -52 -126 -12 -16 -14 -15 -26 12 -18 40 -1 116 56 252
54 129 104 198 208 292 143 127 185 149 99 49z m1695 -71 c-16 -54 -29 -116
-29 -139 0 -76 49 -201 121 -310 68 -101 179 -300 179 -321 0 -25 -62 -66
-118 -78 -19 -4 -49 -20 -67 -37 -19 -16 -42 -28 -52 -27 -10 1 -31 -1 -46 -6
-23 -6 -33 -3 -50 14 -19 18 -20 25 -10 51 10 27 7 45 -26 143 -21 62 -45 126
-54 143 -43 84 -83 270 -71 338 8 52 18 71 66 125 21 25 35 48 30 53 -14 14
-222 -51 -346 -109 -88 -42 -123 -54 -135 -46 -18 10 -127 169 -134 194 -4 14
8 19 57 29 33 6 109 27 168 46 152 48 262 46 399 -10 l60 -24 15 30 c14 27 51
51 65 42 3 -2 -7 -47 -22 -101z m-1240 -302 c11 -20 10 -25 -102 -321 -55
-145 -55 -145 -91 -151 -46 -8 -64 -24 -72 -66 -9 -47 8 -80 53 -98 30 -13 43
-14 62 -5 23 11 37 -1 252 -216 l227 -227 -5 -39 c-4 -28 -1 -44 12 -58 19
-21 64 -26 93 -11 13 7 56 -17 182 -100 241 -158 281 -189 292 -221 11 -32 46
-45 77 -28 28 14 29 65 1 82 -15 10 -20 25 -22 63 l-1 50 -4 -45 c-5 -48 -17
-70 -40 -70 -8 0 -46 22 -86 48 -40 27 -130 87 -202 135 -189 125 -175 114
-166 140 6 17 24 26 72 39 60 17 52 17 -43 1 -56 -8 -60 16 -12 71 54 60 122
141 168 201 21 27 44 55 51 60 6 6 20 24 29 40 l18 30 -27 -30 c-36 -39 -55
-62 -147 -170 -137 -162 -144 -169 -160 -162 -17 6 -20 24 -38 222 -30 326
-35 405 -30 405 3 0 78 -29 165 -65 87 -35 182 -67 210 -70 46 -6 56 -4 96 23
28 20 45 26 48 19 2 -7 10 -19 18 -28 15 -18 8 -49 -12 -49 -22 0 -28 -20 -13
-38 17 -21 70 -153 97 -241 16 -51 18 -68 9 -80 -10 -13 -10 -14 2 -4 10 9 18
9 34 1 12 -6 23 -9 26 -7 3 2 6 -6 8 -17 3 -20 10 -22 104 -26 84 -3 102 -7
114 -23 22 -30 17 -49 -27 -96 -62 -66 -82 -118 -75 -193 17 -165 4 -211 -76
-256 -63 -37 -155 -33 -333 13 -77 20 -160 43 -185 52 -44 16 -84 48 -73 59 4
3 1 7 -5 7 -7 1 -18 2 -24 3 -7 1 -16 -2 -19 -7 -14 -20 -217 86 -358 187 -80
57 -152 130 -222 223 -90 120 -88 119 -103 51 -4 -16 -11 -28 -18 -28 -7 0 -9
20 -5 66 6 58 3 72 -19 115 -52 103 -112 257 -133 338 -24 98 -29 83 74 216
70 89 180 198 264 262 64 47 76 51 90 24z m137 -83 c100 -104 116 -126 103
-150 -6 -11 -9 -31 -6 -44 4 -24 -4 -30 -299 -200 -33 -20 -43 -22 -57 -11
-15 11 -13 18 12 77 15 36 54 138 86 228 69 193 70 193 161 100z m152 -258
c32 -19 32 -21 32 -97 0 -43 5 -121 10 -173 9 -83 40 -422 40 -442 0 -23 -36
-1 -92 56 -302 304 -380 387 -374 402 3 9 6 28 6 44 0 24 9 34 56 62 30 18
103 63 162 100 59 37 112 67 117 68 6 0 25 -9 43 -20z m-1885 -499 c8 -31 -32
-57 -101 -65 -95 -11 -122 -23 -122 -55 0 -15 10 -38 22 -51 15 -16 18 -25 10
-28 -7 -2 -9 -9 -5 -15 4 -6 -7 -2 -23 10 -50 35 -119 70 -152 78 -18 3 -32
10 -32 14 0 10 98 63 170 91 66 26 119 37 181 39 38 1 48 -3 52 -18z m1336
-324 c1 -52 4 -61 31 -84 39 -32 42 -94 8 -130 l-22 -24 17 -82 c40 -196 168
-580 241 -727 35 -69 86 -180 86 -186 0 -7 -32 12 -55 33 -11 10 -34 25 -52
32 -17 7 -52 32 -77 54 -25 23 -55 49 -67 57 -12 8 -33 24 -46 35 l-25 20 51
53 c28 29 56 50 61 47 15 -9 13 0 -19 94 -48 141 -96 308 -128 440 -16 69 -34
126 -40 128 -6 2 -64 -75 -129 -171 -66 -97 -123 -175 -127 -176 -28 -1 -5 47
94 193 105 155 112 168 101 192 -7 14 -12 38 -12 54 0 24 -8 31 -62 57 -100
47 -258 145 -258 160 0 8 3 14 6 14 4 0 61 -31 128 -69 196 -111 195 -111 227
-92 24 13 28 23 34 80 4 35 10 71 13 80 9 25 21 -17 21 -82z"/>
</g>
</svg>
